<svg width="200" height="200" viewBox="0 0 200 200" fill="none" xmlns="http://www.w3.org/2000/svg">
<rect width="200" height="200" rx="74" fill="#D9D9D9"/>
<path d="M50 57C50 53.134 53.134 50 57 50H67C70.866 50 74 53.134 74 57V143C74 146.866 70.866 150 67 150H57C53.134 150 50 146.866 50 143V57Z" fill="#0077A6"/>
<path d="M116 57C116 53.134 119.134 50 123 50H133C136.866 50 140 53.134 140 57V143C140 146.866 136.866 150 133 150H123C119.134 150 116 146.866 116 143V57Z" fill="url(#paint0_linear_218_2)"/>
<path d="M105.844 88.0458C108.606 88.048 110.843 90.2884 110.84 93.0499L110.829 107.05C110.827 109.811 108.586 112.048 105.825 112.046L55 112.004C52.2386 112.002 50.0018 109.761 50.0041 107L50.0156 93C50.0179 90.2386 52.2583 88.0018 55.0197 88.0041L105.844 88.0458Z" fill="#0077A6"/>
<path d="M158.525 50.0545C161.287 50.0568 163.523 52.2972 163.521 55.0586L163.51 69.0586C163.507 71.82 161.267 74.0568 158.505 74.0545L97 74.0041C94.2386 74.0018 92.0019 71.7614 92.0041 69L92.0156 55C92.0179 52.2386 94.2583 50.0018 97.0197 50.0041L158.525 50.0545Z" fill="#0077A6"/>
<defs>
<linearGradient id="paint0_linear_218_2" x1="128" y1="50" x2="128" y2="150" gradientUnits="userSpaceOnUse">
<stop stop-color="#00506F"/>
<stop offset="1" stop-color="#0076A5"/>
</linearGradient>
</defs>
</svg>
